<svg version="1.2" xmlns="http://www.w3.org/2000/svg" viewBox="0 0 24 24" width="24" height="24">
	<title>audio-on</title>
	<style>
		.s0 { fill: #f2f2f2 } 
	</style>
	<path class="s0" d="m14.7 9.1c-0.1-0.2-0.4-0.3-0.6-0.4q-0.3 0-0.6 0.2c-0.2 0.2-0.3 0.4-0.3 0.6-0.1 0.2 0 0.5 0.1 0.6q0.2 0.3 0.3 0.5 0.1 0.2 0.2 0.4 0.1 0.2 0.1 0.5 0 0.3 0 0.5 0 0.2 0 0.5 0 0.3-0.1 0.5-0.1 0.2-0.2 0.5-0.1 0.1-0.3 0.4-0.2 0.2-0.2 0.6c0.1 0.2 0.2 0.5 0.4 0.6q0.2 0.2 0.6 0.2c0.2-0.1 0.5-0.2 0.6-0.4q0.2-0.3 0.5-0.6 0.1-0.4 0.2-0.8 0.2-0.3 0.2-0.7 0.1-0.4 0.1-0.8 0-0.4-0.1-0.8 0-0.4-0.2-0.7-0.1-0.4-0.2-0.7-0.3-0.4-0.5-0.7zm2.2-1.4q-0.2-0.2-0.6-0.3-0.3 0-0.7 0.2c-0.2 0.1-0.3 0.4-0.3 0.6q0 0.4 0.2 0.7 0.3 0.3 0.5 0.7 0.2 0.3 0.4 0.7 0.1 0.4 0.2 0.8 0.1 0.5 0.1 0.9 0 0.4-0.1 0.9-0.1 0.4-0.2 0.8-0.2 0.4-0.4 0.8-0.2 0.4-0.5 0.7-0.2 0.2-0.2 0.6c0.1 0.2 0.2 0.5 0.4 0.6q0.3 0.2 0.6 0.2c0.3 0 0.4-0.2 0.6-0.3q0.4-0.5 0.6-1 0.3-0.5 0.5-1 0.2-0.5 0.3-1.1 0.1-0.6 0.1-1.2 0-0.6-0.1-1.2-0.1-0.5-0.3-1.1-0.2-0.5-0.5-1-0.2-0.5-0.6-1zm-5.2-2.1q-0.1 0-0.2 0-0.1 0-0.2 0-0.1 0-0.1 0-0.1 0.1-0.2 0.2l-2.9 2.7h-1.9q-0.1 0-0.3 0.1-0.1 0-0.1 0.1-0.1 0-0.2 0.1 0 0.2 0 0.3v5.8q0 0.1 0 0.3 0.1 0.1 0.2 0.1 0 0.1 0.1 0.1 0.2 0.1 0.3 0.1h1.9l2.9 2.7q0.1 0.2 0.3 0.2 0.2 0 0.4 0 0.1-0.1 0.2-0.3 0.1-0.2 0.1-0.3v-11.6q0-0.1 0-0.2-0.1-0.1-0.1-0.1 0-0.1-0.1-0.2-0.1-0.1-0.1-0.1z"/>
</svg>