<svg version="1.2" xmlns="http://www.w3.org/2000/svg" viewBox="0 0 24 24" width="24" height="24">
	<title>audio-off</title>
	<style>
		.s0 { fill: #f2f2f2 } 
	</style>
	<path fill-rule="evenodd" class="s0" d="m19.1 18.7l-0.4 0.4c-0.2 0.2-0.5 0.2-0.7 0l-11.8-11.9-1.3-1.3c-0.1-0.1-0.1-0.4 0-0.6l0.4-0.4c0.2-0.2 0.5-0.2 0.7 0l2.9 3 2.8-2.8c0.3-0.2 0.7-0.1 0.7 0.3v6l1.9 1.9c0.1-0.4 0.2-0.8 0.2-1.3 0-1.4-0.7-2-0.7-2-0.2-0.1-0.2-0.4 0-0.6l0.4-0.4c0.2-0.2 0.5-0.2 0.6 0 0 0 1.2 1 1.2 3 0 1.1-0.3 1.8-0.6 2.3l1 1.1c0.5-0.7 1.1-1.8 1.1-3.4 0-2.6-1.6-4-1.6-4-0.2-0.2-0.2-0.5 0-0.7l0.4-0.4c0.1-0.1 0.4-0.1 0.6 0 0 0 2.1 1.8 2.1 5.1 0 2.2-0.9 3.7-1.5 4.4l1.6 1.6c0.2 0.2 0.2 0.5 0 0.7zm-13.5-9.8q0.2 0 0.3 0.1l6.5 6.4c0 0.1 0.1 0.2 0.1 0.3v2.9c0 0.4-0.5 0.5-0.8 0.3l-3.7-3.8h-2.6c-0.2 0-0.4-0.2-0.4-0.4v-5.4c0-0.2 0.2-0.4 0.4-0.4z"/>
</svg>