<svg version="1.2" xmlns="http://www.w3.org/2000/svg" viewBox="0 0 24 24" width="24" height="24">
	<title>play-on</title>
	<style>
		.s0 { fill: #f2f2f2 } 
	</style>
	<path class="s0" d="m8.4 18.1q-0.1 0-0.2 0-0.2 0-0.3 0-0.1-0.1-0.2-0.1-0.2-0.1-0.3-0.1-0.2-0.2-0.4-0.4-0.2-0.2-0.3-0.4-0.1-0.2-0.2-0.5-0.1-0.2-0.1-0.5v-8.2q0-0.6 0.3-1 0.3-0.5 0.7-0.8 0.5-0.2 1-0.2 0.6 0 1 0.2l7.2 4.2q0.4 0.2 0.7 0.7 0.3 0.5 0.3 1 0 0.5-0.3 1-0.3 0.5-0.7 0.7l-7.2 4.2q-0.1 0-0.2 0.1-0.1 0-0.2 0.1-0.2 0-0.3 0-0.1 0-0.3 0z"/>
</svg>